<mxfile host="app.diagrams.net" modified="2021-03-02T21:11:23.760Z" agent="5.0 (Macintosh; Intel Mac OS X 10_13_6) AppleWebKit/605.1.15 (KHTML, like Gecko) Version/13.1.2 Safari/605.1.15" etag="ZwbfZ96Xs_VWRRV4mLFK" version="14.4.3" type="github">
  <diagram id="C5RBs43oDa-KdzZeNtuy" name="Page-1">
    <mxGraphModel dx="946" dy="662" grid="1" gridSize="10" guides="1" tooltips="1" connect="1" arrows="1" fold="1" page="1" pageScale="1" pageWidth="827" pageHeight="1169" math="0" shadow="0">
      <root>
        <mxCell id="WIyWlLk6GJQsqaUBKTNV-0" />
        <mxCell id="WIyWlLk6GJQsqaUBKTNV-1" parent="WIyWlLk6GJQsqaUBKTNV-0" />
        <mxCell id="oe6Ihu9N1JD7sNpRNsid-8" style="edgeStyle=orthogonalEdgeStyle;rounded=0;orthogonalLoop=1;jettySize=auto;html=1;entryX=0.5;entryY=0;entryDx=0;entryDy=0;" edge="1" parent="WIyWlLk6GJQsqaUBKTNV-1" source="oe6Ihu9N1JD7sNpRNsid-0" target="oe6Ihu9N1JD7sNpRNsid-2">
          <mxGeometry relative="1" as="geometry" />
        </mxCell>
        <mxCell id="oe6Ihu9N1JD7sNpRNsid-0" value="Inicio" style="ellipse;whiteSpace=wrap;html=1;fillColor=#e1d5e7;strokeColor=#9673a6;" vertex="1" parent="WIyWlLk6GJQsqaUBKTNV-1">
          <mxGeometry x="200" y="110" width="120" height="80" as="geometry" />
        </mxCell>
        <mxCell id="oe6Ihu9N1JD7sNpRNsid-9" style="edgeStyle=orthogonalEdgeStyle;rounded=0;orthogonalLoop=1;jettySize=auto;html=1;exitX=0.5;exitY=1;exitDx=0;exitDy=0;entryX=0.5;entryY=0;entryDx=0;entryDy=0;" edge="1" parent="WIyWlLk6GJQsqaUBKTNV-1" source="oe6Ihu9N1JD7sNpRNsid-2" target="oe6Ihu9N1JD7sNpRNsid-5">
          <mxGeometry relative="1" as="geometry" />
        </mxCell>
        <mxCell id="oe6Ihu9N1JD7sNpRNsid-2" value="" style="verticalLabelPosition=bottom;verticalAlign=top;html=1;shape=hexagon;perimeter=hexagonPerimeter2;arcSize=6;size=0.27;fillColor=#fff2cc;strokeColor=#d6b656;" vertex="1" parent="WIyWlLk6GJQsqaUBKTNV-1">
          <mxGeometry x="125" y="230" width="270" height="60" as="geometry" />
        </mxCell>
        <mxCell id="oe6Ihu9N1JD7sNpRNsid-3" value="Fin" style="ellipse;whiteSpace=wrap;html=1;fillColor=#e1d5e7;strokeColor=#9673a6;" vertex="1" parent="WIyWlLk6GJQsqaUBKTNV-1">
          <mxGeometry x="200" y="450" width="120" height="80" as="geometry" />
        </mxCell>
        <mxCell id="oe6Ihu9N1JD7sNpRNsid-4" value="n = 1 hasta 100; n = n +1" style="text;html=1;strokeColor=none;fillColor=none;align=center;verticalAlign=middle;whiteSpace=wrap;rounded=0;" vertex="1" parent="WIyWlLk6GJQsqaUBKTNV-1">
          <mxGeometry x="190" y="250" width="140" height="20" as="geometry" />
        </mxCell>
        <mxCell id="oe6Ihu9N1JD7sNpRNsid-10" style="edgeStyle=orthogonalEdgeStyle;rounded=0;orthogonalLoop=1;jettySize=auto;html=1;entryX=0.5;entryY=0;entryDx=0;entryDy=0;" edge="1" parent="WIyWlLk6GJQsqaUBKTNV-1" source="oe6Ihu9N1JD7sNpRNsid-5" target="oe6Ihu9N1JD7sNpRNsid-3">
          <mxGeometry relative="1" as="geometry" />
        </mxCell>
        <mxCell id="oe6Ihu9N1JD7sNpRNsid-11" style="edgeStyle=orthogonalEdgeStyle;rounded=0;orthogonalLoop=1;jettySize=auto;html=1;entryX=0;entryY=0.5;entryDx=0;entryDy=0;" edge="1" parent="WIyWlLk6GJQsqaUBKTNV-1" source="oe6Ihu9N1JD7sNpRNsid-5" target="oe6Ihu9N1JD7sNpRNsid-2">
          <mxGeometry relative="1" as="geometry">
            <Array as="points">
              <mxPoint x="260" y="420" />
              <mxPoint x="105" y="420" />
              <mxPoint x="105" y="260" />
            </Array>
          </mxGeometry>
        </mxCell>
        <mxCell id="oe6Ihu9N1JD7sNpRNsid-5" value="&quot;Imprime&quot; n" style="shape=document;whiteSpace=wrap;html=1;boundedLbl=1;fillColor=#d5e8d4;strokeColor=#82b366;" vertex="1" parent="WIyWlLk6GJQsqaUBKTNV-1">
          <mxGeometry x="200" y="330" width="120" height="60" as="geometry" />
        </mxCell>
      </root>
    </mxGraphModel>
  </diagram>
</mxfile>
